<svg id="Capa_1" data-name="Capa 1" xmlns="http://www.w3.org/2000/svg" viewBox="0 0 74.36 74.36"><defs><style>.cls-1{fill:#f5e3c7;}.cls-2{fill:#dbc7ab;}.cls-3{fill:#e06e7a;}.cls-4{fill:#8c757d;}.cls-5{fill:#ebb066;}.cls-6{fill:#cfcfcc;}.cls-7{fill:#87c2d9;}.cls-8{fill:#3b3029;}</style></defs><path class="cls-1" d="M60.73,37.18v7.44H45.86V37.18a2.48,2.48,0,0,0,2.48-2.47h0V32.22h9.91V34.7a2.48,2.48,0,0,0,2.47,2.48Z"/><path class="cls-2" d="M58.45,35.67a11.8,11.8,0,0,1-10.59.49,2.48,2.48,0,0,0,.48-1.46V32.22h9.91V34.7a2.48,2.48,0,0,0,.2,1"/><path class="cls-3" d="M35.31,41.86l-3.09,7.71h9.92v18.6H64.45V49.57h8.67v-5a7.44,7.44,0,0,0-7.43-7.44h-5L59.34,39a7.76,7.76,0,0,1-13.15-1.18l-.33-.67H42.22a7.44,7.44,0,0,0-6.91,4.68"/><polygon class="cls-1" points="34.7 68.17 24.79 68.17 32.22 49.58 42.14 49.58 34.7 68.17"/><path class="cls-1" d="M64.45,24.79H62V17.35h2.48a3.72,3.72,0,0,1,0,7.44"/><path class="cls-1" d="M40.9,17.35h2.48v7.44H40.9a3.72,3.72,0,0,1,0-7.44"/><path class="cls-1" d="M48.34,7.44H57a7.44,7.44,0,0,1,7.44,7.43v8.06a11.78,11.78,0,0,1-23.55,0V14.87a7.44,7.44,0,0,1,7.44-7.43"/><path class="cls-4" d="M64.45,17.35l-2.74-.91A6.88,6.88,0,0,1,57,9.92V3.72a7.44,7.44,0,0,1,7.44,7.43Z"/><path class="cls-4" d="M57,3.72v6.2a29.65,29.65,0,0,1-7.82,3.69,29.45,29.45,0,0,1-8.55,1.26H38.42V11.15a9.92,9.92,0,0,1,9.92-9.91H53a4.48,4.48,0,0,1,4,2.48"/><rect class="cls-5" x="1.24" y="68.17" width="71.88" height="4.96"/><path class="cls-1" d="M5,28.51h34.7a3.72,3.72,0,0,1,3.72,3.71V54.53a3.72,3.72,0,0,1-3.72,3.72H5a3.71,3.71,0,0,1-3.72-3.72V32.22A3.71,3.71,0,0,1,5,28.51"/><polygon class="cls-6" points="22.31 58.25 27.27 58.25 26.03 50.81 22.31 50.81 22.31 58.25"/><rect class="cls-7" x="14.87" y="63.21" width="14.87" height="4.96"/><polygon class="cls-2" points="22.31 68.17 9.91 68.17 17.35 50.81 26.03 50.81 22.31 68.17"/><rect class="cls-7" x="34.7" y="63.21" width="14.87" height="4.96"/><path class="cls-1" d="M64.45,49.58v9.91H48.34a5,5,0,0,0-5,5v2.48a1.24,1.24,0,0,0,1.24,1.24H64.45a8.68,8.68,0,0,0,8.67-8.68V49.58Z"/><path class="cls-8" d="M9.91,35.94H5V33.46h5Zm29.75,0h-5V33.46h5Zm-7.44,0H27.27V33.46h4.95Zm-7.43,0h-5V33.46h5Zm-7.44,0h-5V33.46h5Zm40.8,8.8L59.24,47a13.63,13.63,0,0,1-12.76-.46l1.24-2.15A11.14,11.14,0,0,0,58.15,44.74Zm13.73,3.6H65.69V44.62H63.21V58.25H48.34a6.19,6.19,0,0,0-5,2.48V57.81a5,5,0,0,0,1.24-3.28V38.42h.47a9,9,0,0,0,12.08,4,8.88,8.88,0,0,0,3.16-2.64l1-1.36h4.34a6.2,6.2,0,0,1,6.19,6.2Zm0,23.54H2.48V69.41h69.4ZM18.17,52.05h6.32L21.31,66.93H11.79Zm10.34,12.4v2.48H23.84l.53-2.48Zm-3.07-5h1.48l-1,2.48h-1Zm4.15,0h7.25l-1,2.48H34.7a1.24,1.24,0,0,0-1.24,1.24v3.72H31V63.21A1.23,1.23,0,0,0,29.74,62H28.6Zm9.92,0h.15a4.74,4.74,0,0,0,1.24-.16V62H38.52Zm2.63,7.44h-6.2V64.45h6.2Zm7.34-31.38A13.08,13.08,0,0,0,57,35.19a3.7,3.7,0,0,0,1.06,2.14,3.14,3.14,0,0,0,.6.49l-.35.47a6.52,6.52,0,0,1-9.12,1.32,6.33,6.33,0,0,1-1.55-1.67,3.73,3.73,0,0,0,1.8-2.39M62.11,15.27a5.64,5.64,0,0,1-3.86-5.35V5.08a6.23,6.23,0,0,1,5,6.08v4.47Zm-6.34-6a28.05,28.05,0,0,1-15.13,4.39h-1V12.25c10.61-1.39,14.35-5,14.51-5.18L52.42,5.31a11.64,11.64,0,0,1-3.08,1.86,34.87,34.87,0,0,1-9.56,2.57,8.67,8.67,0,0,1,.72-2.32,18.47,18.47,0,0,0,7.15-1.35l-1.1-2.22a14.16,14.16,0,0,1-4.12,1,8.63,8.63,0,0,1,5.91-2.33H53A3.23,3.23,0,0,1,55.77,4ZM38.42,21.07a2.44,2.44,0,0,1,.73-1.75,2.16,2.16,0,0,1,.51-.39v4.29a2.5,2.5,0,0,1-1.24-2.15m27.27,1.86v-4a2.45,2.45,0,0,1,.51,3.89,2.25,2.25,0,0,1-.52.4c0-.1,0-.19,0-.29m0,13h-5a1.24,1.24,0,0,1-1.24-1.23h0V34A13.09,13.09,0,0,0,65.33,26a5,5,0,0,0,.36-9.68V11.16a8.69,8.69,0,0,0-7.95-8.65A5.69,5.69,0,0,0,53,0H48.34A11.18,11.18,0,0,0,37.18,11.16v3.71a1.24,1.24,0,0,0,1.24,1.24h1.24v.16A5,5,0,0,0,40,26c0,.13.07.27.11.4l2.39-.65a10.33,10.33,0,0,1-.37-2.77V16.08A30.7,30.7,0,0,0,56,12a8.11,8.11,0,0,0,5.28,5.64l1.89.63v4.68a10.54,10.54,0,0,1-16.64,8.59l-1.43,2a13.24,13.24,0,0,0,2,1.15h0a1.24,1.24,0,0,1-1.24,1.24H44.62V32.22a5,5,0,0,0-5-4.95H5a5,5,0,0,0-5,4.95v3.72H2.48V32.22A2.48,2.48,0,0,1,5,29.75h34.7a2.48,2.48,0,0,1,2.48,2.47V54.53A2.48,2.48,0,0,1,39.66,57H26l1.27-5.94a1.25,1.25,0,0,0-.95-1.47,1.18,1.18,0,0,0-.26,0H17.35a1.24,1.24,0,0,0-1.14.75L13.35,57H5a2.48,2.48,0,0,1-2.48-2.48V38.42H0V54.53a5,5,0,0,0,5,5h7.33L9.1,66.93H1.24A1.23,1.23,0,0,0,0,68.17v5a1.23,1.23,0,0,0,1.24,1.24H73.12a1.23,1.23,0,0,0,1.24-1.24v-5a1.23,1.23,0,0,0-1.24-1.24H71a9.87,9.87,0,0,0,3.37-7.44V58.25H71.88v1.24a7.44,7.44,0,0,1-7.43,7.44H44.62V64.45a3.72,3.72,0,0,1,3.72-3.72H64.45a1.24,1.24,0,0,0,1.24-1.24V50.81h6.19v5h2.48V44.62a8.68,8.68,0,0,0-8.67-8.68"/></svg>