<svg id="Capa_1" data-name="Capa 1" xmlns="http://www.w3.org/2000/svg" viewBox="0 0 74.36 74.36"><defs><style>.cls-1{fill:#bfdee0;}.cls-2{fill:#87c2d9;}.cls-3{fill:#f5e3c7;}.cls-4{fill:#ebb066;}.cls-5{fill:#3b3029;}</style></defs><path class="cls-1" d="M15.11,66.51a4.37,4.37,0,0,0,4.38,4.36H57.43a4.37,4.37,0,0,0,4.38-4.36V62.15H15.11Z"/><rect class="cls-2" x="15.11" y="9.81" width="46.7" height="52.34"/><path class="cls-1" d="M57.43,1.09H19.48a4.37,4.37,0,0,0-4.37,4.36V9.81h46.7V5.45a4.37,4.37,0,0,0-4.38-4.36"/><path class="cls-3" d="M53.35,74.36V70.15L52,67.08a12.36,12.36,0,0,1,4.56-15.54V43a3.73,3.73,0,0,1,3.74-3.73,3.67,3.67,0,0,1,1.56.34V34l5.26.47,6.42,17.41L67.94,66.51v7.85Z"/><path class="cls-3" d="M1.09,20.13V49.36H21.53l.15.3a4.73,4.73,0,0,0,8.45,0l.16-.3H50.72V20.13Z"/><path class="cls-4" d="M31.74,15.77a5.83,5.83,0,0,0-5.83,5.82,5.84,5.84,0,0,0-5.84-5.82H5.47V45H46.34V15.77Z"/><path class="cls-5" d="M30.29,29.22h7.29V27H30.29Zm0-4.36H42V22.68H30.29ZM9.85,29.22h7.3V27H9.85Zm11.68-6.54H9.85v2.18H21.53ZM60.72,5.45a3.29,3.29,0,0,0-3.29-3.27H19.48A3.28,3.28,0,0,0,16.2,5.45V8.72H60.72Zm0,5.45H16.2v3.78h3.87a7,7,0,0,1,5.84,3.19,7,7,0,0,1,5.83-3.19H47.43v4.37h4.38v31.4H31a5.84,5.84,0,0,1-10.09,0H16.2V61.06H49.77a13.07,13.07,0,0,1,.51-2.9A13.5,13.5,0,0,1,55.41,51V43a4.83,4.83,0,0,1,4.84-4.82l.47,0V10.9ZM51,67.53a13.52,13.52,0,0,1-1.15-4.29H16.2v3.27a3.27,3.27,0,0,0,3.28,3.27H52ZM31.74,40.27a4.75,4.75,0,0,0-4.61,3.63H45.25V40.27Zm13.51-2.18V16.86H31.74A4.74,4.74,0,0,0,27,21.59V40a6.88,6.88,0,0,1,4.74-1.88Zm-23,10.18.46.91a3.64,3.64,0,0,0,6.49,0l.46-.91h20v-27H47.43V46.08h-43V21.23H2.19v27ZM6.57,43.9H24.68a4.73,4.73,0,0,0-4.61-3.63H6.57Zm0-5.81h13.5A6.88,6.88,0,0,1,24.81,40V21.59a4.74,4.74,0,0,0-4.74-4.73H6.57ZM74.08,53.35,69.45,65.61A6.57,6.57,0,0,0,69,67.89v6.47H66.85V67.59a6.93,6.93,0,0,1,.45-2.47l4.53-12a3.78,3.78,0,0,0,0-2.61l-5-13.7a2.34,2.34,0,0,0-2-1.51l-1.9-.17v3.79a4.83,4.83,0,0,1,2.19,4v13.4H62.91V43.07a2.73,2.73,0,0,0-2.13-2.7A2.66,2.66,0,0,0,57.6,43v9.17l-.5.32a11.31,11.31,0,0,0-4.16,14.18l1.5,3.28v4.45H52.25V72H19.48A5.46,5.46,0,0,1,14,66.51V50.45H0V19.05H4.38V14.68H14V5.45A5.46,5.46,0,0,1,19.48,0h38a5.47,5.47,0,0,1,5.48,5.45V33l2.75.25a3.47,3.47,0,0,1,3,2.26l5.48,14.85a4.3,4.3,0,0,1,0,3M37.36,67.6h2.19V65.42H37.36ZM34.08,4.36h8.76V6.54H34.08Z"/></svg>