<svg id="Capa_1" data-name="Capa 1" xmlns="http://www.w3.org/2000/svg" viewBox="0 0 74.36 74.36"><defs><style>.cls-1{fill:#f5e3c7;}.cls-2{fill:#dbc7ab;}.cls-3{fill:#f7e5c9;}.cls-4{fill:#ebb066;}.cls-5{fill:#bfdee0;}.cls-6{fill:#87c2d9;}.cls-7{fill:#e06e7a;}.cls-8{fill:#3b3029;}</style></defs><path class="cls-1" d="M35.73,11.62a5.8,5.8,0,0,0,5.81-5.81,5.5,5.5,0,0,0-.12-1.16A5.81,5.81,0,0,0,30,4.65a5.5,5.5,0,0,0-.12,1.16,5.8,5.8,0,0,0,5.81,5.81"/><path class="cls-2" d="M32.24,10.46a5.81,5.81,0,0,1-2.32-4.65A5.5,5.5,0,0,1,30,4.65H27a2.92,2.92,0,0,0-2.9,2.9v2.91Z"/><path class="cls-2" d="M41.54,5.81a5.79,5.79,0,0,1-2.33,4.65h8.14V7.55a2.92,2.92,0,0,0-2.91-2.9h-3a5.5,5.5,0,0,1,.12,1.16"/><path class="cls-3" d="M21.62,20a3.76,3.76,0,1,0-7.51,0v1.88a3.7,3.7,0,0,0,1,2.5,3.73,3.73,0,0,0,5.59,0,3.7,3.7,0,0,0,1-2.5Z"/><path class="cls-4" d="M20.66,24.41a3.73,3.73,0,0,1-5.59,0,6.6,6.6,0,0,0-3.78,5.95v1.88H24.44V30.36a6.6,6.6,0,0,0-3.78-5.95"/><path class="cls-3" d="M21.62,41.81a3.76,3.76,0,1,0-7.51,0v1.88a3.76,3.76,0,1,0,7.51,0Z"/><path class="cls-5" d="M20.66,46.2a3.75,3.75,0,0,1-5.59,0,6.59,6.59,0,0,0-3.78,5.95V54H24.44V52.15a6.6,6.6,0,0,0-3.78-5.95"/><path class="cls-3" d="M57.35,20a3.76,3.76,0,1,0-7.52,0v1.88a3.71,3.71,0,0,0,1,2.5,3.73,3.73,0,0,0,5.59,0,3.7,3.7,0,0,0,1-2.5Z"/><path class="cls-6" d="M56.39,24.41a3.73,3.73,0,0,1-5.59,0A6.61,6.61,0,0,0,47,30.36v1.88H60.17V30.36a6.6,6.6,0,0,0-3.78-5.95"/><path class="cls-3" d="M57.35,41.81a3.76,3.76,0,1,0-7.52,0v1.88a3.76,3.76,0,1,0,7.52,0Z"/><path class="cls-7" d="M56.39,46.2a3.75,3.75,0,0,1-5.59,0A6.6,6.6,0,0,0,47,52.15V54H60.17V52.15a6.6,6.6,0,0,0-3.78-5.95"/><path class="cls-1" d="M35.73,54H0v2.9a2.92,2.92,0,0,0,2.91,2.91H60.17V54H35.73Z"/><path class="cls-2" d="M60.17,54v5.81h8.38a2.92,2.92,0,0,0,2.91-2.91V54H60.17Z"/><path class="cls-7" d="M24.44,32.24H35.73V11.62a5.78,5.78,0,0,1-3.49-1.16H2.91A2.91,2.91,0,0,0,0,13.36V32.24H11.29V30.36a6.6,6.6,0,0,1,3.78-5.95,3.7,3.7,0,0,1-1-2.5V20a3.76,3.76,0,1,1,7.51,0v1.88a3.7,3.7,0,0,1-1,2.5,6.6,6.6,0,0,1,3.78,5.95Z"/><path class="cls-6" d="M35.73,32.24H0V54H11.29V52.15a6.59,6.59,0,0,1,3.78-5.95,3.75,3.75,0,0,1-1-2.51V41.81a3.76,3.76,0,1,1,7.51,0v1.88a3.75,3.75,0,0,1-1,2.51,6.59,6.59,0,0,1,3.78,5.95V54H35.73Z"/><path class="cls-5" d="M35.73,11.62V32.24H47V30.36a6.6,6.6,0,0,1,3.78-5.95,3.71,3.71,0,0,1-1-2.5V20a3.76,3.76,0,1,1,7.52,0v1.88a3.7,3.7,0,0,1-1,2.5,6.6,6.6,0,0,1,3.78,5.95v1.88H71.46V13.36a2.91,2.91,0,0,0-2.91-2.9H39.22a5.81,5.81,0,0,1-3.49,1.16"/><path class="cls-4" d="M47,32.24H35.73V54H47V52.15A6.6,6.6,0,0,1,50.8,46.2a3.76,3.76,0,0,1-1-2.51V41.81a3.76,3.76,0,1,1,7.52,0v1.88a3.75,3.75,0,0,1-1,2.51,6.59,6.59,0,0,1,3.78,5.95V54H71.46V32.24H47Z"/><polygon class="cls-2" points="28.38 59.84 43.09 59.84 45.97 71.46 25.49 71.46 28.38 59.84"/><path class="cls-8" d="M70,59.84H63.08V56.93h8.38v1.46A1.45,1.45,0,0,1,70,59.84M45.56,71.46H28.8L31,62.74H43.4ZM2.9,58.39V56.93H60.17v2.91H4.36A1.46,1.46,0,0,1,2.9,58.39m0-43.57a1.46,1.46,0,0,1,1.46-1.46H33.25a7.15,7.15,0,0,0,2.48,1V32.24H27.35v-.42a8,8,0,0,0-3.23-6.44,5.21,5.21,0,0,0,.41-2V21.48a5.22,5.22,0,0,0-10.43,0v1.88a5.21,5.21,0,0,0,.41,2,8,8,0,0,0-3.22,6.44v.42H2.9ZM27,10.46V9a1.46,1.46,0,0,1,1.46-1.46h1.46a7.31,7.31,0,0,0,.73,2.91H27M37.18,2.9a4.36,4.36,0,1,1-4.36,4.36A4.37,4.37,0,0,1,37.18,2.9M47.35,9v1.45H43.7a7.49,7.49,0,0,0,.74-2.91h1.45A1.46,1.46,0,0,1,47.35,9m24.11,5.81V32.24H63.08v-.42a8,8,0,0,0-3.23-6.44,5.21,5.21,0,0,0,.41-2V21.48a5.22,5.22,0,0,0-10.43,0v1.88a5.21,5.21,0,0,0,.41,2A8,8,0,0,0,47,31.82v.42H38.63V14.38a7,7,0,0,0,2.48-1H70a1.45,1.45,0,0,1,1.45,1.46M52.08,27.64a5.19,5.19,0,0,0,5.93,0,5.11,5.11,0,0,1,2.16,4.18v.42H49.92v-.42a5.19,5.19,0,0,1,2.16-4.18m5.27-4.28a2.31,2.31,0,0,1-4.61,0V21.48a2.31,2.31,0,1,1,4.61,0Zm-41,4.28a5.18,5.18,0,0,0,5.92,0,5.11,5.11,0,0,1,2.16,4.18v.42H14.19v-.42a5.17,5.17,0,0,1,2.17-4.18m5.26-4.28a2.31,2.31,0,0,1-4.61,0V21.48a2.31,2.31,0,1,1,4.61,0ZM16.36,49.43a5.18,5.18,0,0,0,5.92,0,5.08,5.08,0,0,1,2.16,4.17V54H14.19V53.6a5.17,5.17,0,0,1,2.17-4.17m5.26-4.29a2.31,2.31,0,1,1-4.61,0V43.26a2.31,2.31,0,0,1,4.61,0Zm38.23,2a5.26,5.26,0,0,0,.41-2V43.26a5.22,5.22,0,0,0-10.43,0v1.88a5.26,5.26,0,0,0,.41,2A8,8,0,0,0,47,53.6V54H38.63V46.77a1.45,1.45,0,0,0-2.9,0V54H27.35V53.6a8,8,0,0,0-3.23-6.43,5.26,5.26,0,0,0,.41-2V43.26a5.22,5.22,0,0,0-10.43,0v1.88a5.26,5.26,0,0,0,.41,2,8,8,0,0,0-3.22,6.43V54H2.9V35.15H71.46V54H63.08V53.6a8,8,0,0,0-3.23-6.43m-7.77,2.26a5.19,5.19,0,0,0,5.93,0,5.08,5.08,0,0,1,2.16,4.17V54H49.92V53.6a5.19,5.19,0,0,1,2.16-4.17m5.27-4.29a2.31,2.31,0,1,1-4.61,0V43.26a2.31,2.31,0,0,1,4.61,0ZM70,10.46H50.25V9a4.36,4.36,0,0,0-4.36-4.36H44a7.25,7.25,0,0,0-13.54,0H28.47A4.36,4.36,0,0,0,24.11,9v1.45H4.36A4.36,4.36,0,0,0,0,14.82V58.39a4.36,4.36,0,0,0,4.36,4.35H28l-2.16,8.72h-1.7a1.45,1.45,0,1,0,0,2.9H50.25a1.45,1.45,0,0,0,0-2.9h-1.7l-2.16-8.72H70a4.35,4.35,0,0,0,4.35-4.35V14.82A4.36,4.36,0,0,0,70,10.46"/><path class="cls-8" d="M37.18,8.71a1.45,1.45,0,1,0,0-2.9h0a1.45,1.45,0,1,0,0,2.9"/><path class="cls-8" d="M37.18,38.78a1.45,1.45,0,1,0,1.45,1.45h0a1.45,1.45,0,0,0-1.45-1.45"/></svg>