<svg id="Capa_1" data-name="Capa 1" xmlns="http://www.w3.org/2000/svg" viewBox="0 0 74.36 74.36"><defs><style>.cls-1{fill:#8c757d;}.cls-2{fill:#dbc7ab;}.cls-3{fill:#f5e3c7;}.cls-4{fill:#ebb066;}.cls-5{fill:#e06e7a;}.cls-6{fill:#c2c7c7;}.cls-7{fill:#bfdee0;}.cls-8{fill:#3b3029;}</style></defs><path class="cls-1" d="M8.68,27.27v-5a21.07,21.07,0,0,1,42.14,0V28.5Z"/><path class="cls-2" d="M45.86,23.55a5,5,0,1,1-5,4.95,5,5,0,0,1,5-4.95"/><path class="cls-2" d="M13.64,23.55a5,5,0,1,1-5,4.95,5,5,0,0,1,5-4.95"/><path class="cls-3" d="M13.64,22.31H24.79c5.48,0,9.91-5,9.91-11.16A11.16,11.16,0,0,1,45.86,22.31v5a16.11,16.11,0,0,1-32.22,0Z"/><path class="cls-4" d="M53.29,48.33V73.12H6.2V48.33a5,5,0,0,1,5-4.95H48.34a5,5,0,0,1,4.95,4.95"/><rect class="cls-5" x="53.29" y="50.81" width="17.35" height="22.31"/><path class="cls-3" d="M73.12,68.16v2.48a2.48,2.48,0,0,1-2.48,2.48h-5V65.69h5a2.48,2.48,0,0,1,2.48,2.47"/><path class="cls-6" d="M13.64,66.93a1.25,1.25,0,0,1-1.11-.69L.14,41.45a1.22,1.22,0,0,1,.54-1.66,1.22,1.22,0,0,1,1.66.54h0l12.4,24.79a1.24,1.24,0,0,1-.56,1.66,1.18,1.18,0,0,1-.55.14"/><rect class="cls-5" x="35.94" y="50.81" width="17.35" height="22.31"/><path class="cls-3" d="M11.16,70.64V68.16a2.48,2.48,0,0,1,2.48-2.47h4.95v7.43H13.64a2.48,2.48,0,0,1-2.48-2.48"/><polygon class="cls-7" points="30.99 43.38 21.07 50.81 21.07 43.38 30.99 43.38"/><polygon class="cls-7" points="28.51 43.38 38.42 50.81 38.42 43.38 28.51 43.38"/><path class="cls-4" d="M59.49,57h5a1.24,1.24,0,0,0,0-2.48h-5a1.24,1.24,0,0,0,0,2.48"/><path class="cls-4" d="M65.69,59.49H58.41a1.24,1.24,0,1,0,0,2.48h7.28a1.24,1.24,0,0,0,0-2.48"/><path class="cls-2" d="M23.55,22.31a5,5,0,1,1-5,5,5,5,0,0,1,5-5"/><path class="cls-2" d="M35.94,22.31a5,5,0,1,1-4.95,5,5,5,0,0,1,4.95-5"/><path class="cls-8" d="M71.88,70.64a1.23,1.23,0,0,1-1.24,1.24H66.93V66.93h3.71a1.23,1.23,0,0,1,1.24,1.24Zm-7.43-5v6.19H54.53V52.05H69.4v12.4H65.69a1.23,1.23,0,0,0-1.24,1.24M37.18,52.05H52.06V71.88H37.18ZM13.64,71.88a1.23,1.23,0,0,1-1.24-1.24V68.17a1.23,1.23,0,0,1,1.24-1.24h3.71v4.95ZM7.44,56.06l4.42,8.84a3.71,3.71,0,0,0-1.94,3.27v2.47a3.67,3.67,0,0,0,.21,1.24H7.44Zm0-7.72a3.72,3.72,0,0,1,3.72-3.72h8.67v6.19a1.24,1.24,0,0,0,1.24,1.24,1.26,1.26,0,0,0,.75-.24l6.69-5V71.88H19.83V65.69a1.23,1.23,0,0,0-1.24-1.24H14.4l-7-13.93ZM39.66,27.27a3.72,3.72,0,1,1-3.72-3.72,3.71,3.71,0,0,1,3.72,3.72M14.93,28.51h2.55A6.2,6.2,0,1,0,28.05,23a12.18,12.18,0,0,0,7.83-10.54,9.93,9.93,0,0,1,8.74,9.84V26H42a6.19,6.19,0,1,0,0,2.48h2.55a14.87,14.87,0,0,1-29.64,0Zm-5,0A3.72,3.72,0,0,1,12.4,25v2.27a17.48,17.48,0,0,0,.71,4.92,3.73,3.73,0,0,1-3.19-3.68m13.63-5a3.72,3.72,0,1,1-3.72,3.72,3.72,3.72,0,0,1,3.72-3.72M17.48,26h-2.6V23.55H18.6A6,6,0,0,0,17.48,26M29.75,2.48A19.86,19.86,0,0,1,49.58,22.31v1.24a6.34,6.34,0,0,0-2.48-1.12v-.12A12.4,12.4,0,0,0,34.7,9.92a1.23,1.23,0,0,0-1.23,1.23c0,5.47-3.9,9.92-8.68,9.92H13.64a1.23,1.23,0,0,0-1.24,1.24v.12a6.28,6.28,0,0,0-2.48,1.12V22.31A19.85,19.85,0,0,1,29.75,2.48M46.39,32.19a17.48,17.48,0,0,0,.71-4.92V25a3.72,3.72,0,0,1-.71,7.19M32.23,44.62h5v3.72Zm-9.92,0h5l-5,3.72ZM34.7,50.81V71.88H31V46.79l4.13,3.1a1.24,1.24,0,0,0-.42.92m17.35-2.47v1.23H39.66v-5h8.68a3.71,3.71,0,0,1,3.71,3.72M71.88,64.66V50.81a1.24,1.24,0,0,0-1.24-1.24H54.53V48.34a6.19,6.19,0,0,0-6.19-6.2H38.68a17.5,17.5,0,0,0,6.74-7.44h.44a6.19,6.19,0,0,0,6.19-6.19v-6.2a22.31,22.31,0,1,0-44.61,0v6.2a6.2,6.2,0,0,0,6.2,6.19h.43a17.52,17.52,0,0,0,6.75,7.44H11.16a6.19,6.19,0,0,0-5.84,4.13l-3-5.93h0A1.24,1.24,0,1,0,.14,41.45h0L5,51.11v22A1.24,1.24,0,0,0,6.2,74.36H70.64a3.71,3.71,0,0,0,3.72-3.72V68.17a3.72,3.72,0,0,0-2.48-3.51"/></svg>